# xmcd
#
# Track frame offsets: 
#        150
#        22668
#        40072
#        59651
#        77056
#        99357
#        121811
#        143727
#
# Disc length: 2170 seconds
#
# Revision: 0
# Processed by: cddbd v1.5.2PL0 Copyright (c) Steve Scherf et al.
# Submitted via: ExactAudioCopy v0.99pb4
#
DISCID=5a087808
DTITLE=Gene Russell - Talk To My Lady
DYEAR=1973
DGENRE=Jazz
TTITLE0=Talk To My Lady
TTITLE1=The Get Down
TTITLE2=Me And Mrs Jones
TTITLE3=For Heaven's Sake
TTITLE4=You Are The Sunshine Of My Life
TTITLE5=Blues Suite
TTITLE6=My Favorite Things
TTITLE7=If You Could See Me Now
EXTD=
EXTT0=
EXTT1=
EXTT2=
EXTT3=
EXTT4=
EXTT5=
EXTT6=
EXTT7=
PLAYORDER=
